PathFileType	4	(X/Y/Z)	Patient4_TMGait_0pt6_01_right_23.trc.trc
DataRate	CameraRate	NumFrames	NumMarkers	Units	OrigDataRate	OrigDataStartFrame	OrigNumFrames
82.840236686391	82.840236686391	5	33	mm	82.840236686391	1	       141
Frame#	Time	Sacral			L.Shoulder			Chest			R.Shoulder			Neck			R.ASIS			L.ASIS			R.Thigh.Superior			R.Thigh.Lateral			R.Thigh.Inferior			R.Patella			L.Thigh.Superior			L.Thigh.Lateral			L.Thigh.Inferior			L.Patella			L.Shank.Superior			L.Shank.Lateral			L.Shank.Inferior			R.Shank.Superior			R.Shank.Lateral			R.Shank.Inferior			R.Heel			R.Midfoot.Superior			R.Midfoot.Lateral			R.Toe			L.Heel			L.Midfoot.Lateral			L.Midfoot.Superior			L.Toe			L.Elbow			L.Wrist			R.Elbow			R.Wrist			
		X1	Y1	Z1	X2	Y2	Z2	X3	Y3	Z3	X4	Y4	Z4	X5	Y5	Z5	X6	Y6	Z6	X7	Y7	Z7	X8	Y8	Z8	X9	Y9	Z9	X10	Y10	Z10	X11	Y11	Z11	X12	Y12	Z12	X13	Y13	Z13	X14	Y14	Z14	X15	Y15	Z15	X16	Y16	Z16	X17	Y17	Z17	X18	Y18	Z18	X19	Y19	Z19	X20	Y20	Z20	X21	Y21	Z21	X22	Y22	Z22	X23	Y23	Z23	X24	Y24	Z24	X25	Y25	Z25	X26	Y26	Z26	X27	Y27	Z27	X28	Y28	Z28	X29	Y29	Z29	X30	Y30	Z30	X31	Y31	Z31	X32	Y32	Z32	X33	Y33	Z33	

1	27.420000000000	657.683746790290	1013.928303585284	469.656085108705	819.781893938487	1446.128430697409	294.163310700948	925.353188671100	1377.328522133960	452.868504939174	840.232107571738	1441.881954982811	628.772269197963	801.318716485638	1502.587072099215	451.111842110629	881.736971687577	951.906253522646	588.262948817002	874.227195690507	968.942473688588	314.278483175465	962.964618903672	778.496899074760	554.927357400841	923.007874044200	657.199550099794	625.103388470172	1009.881379464488	617.061617002889	542.747216546347	1028.106514486302	502.835311800970	563.769780215428	911.941689125736	748.056507258557	351.494560475253	816.436293793514	637.205774466931	292.442729937009	890.869855893217	555.955850305497	361.515435928945	885.393270785280	487.211372132314	374.533708726038	858.891304777416	416.475644499070	366.315874826861	768.764785482544	302.888769231537	316.459188818854	814.195303592313	192.738382780948	392.047029261185	950.190892312749	429.417307325183	571.278742939026	828.156909552629	389.515181092151	630.186050117040	814.458054452059	280.410210203536	580.522095251736	614.426378601937	220.349399011440	550.573783324566	780.965029775024	156.348780192397	591.200116870327	670.602716575234	154.905992094684	621.344493015462	843.957563734867	41.503324133338	612.845631569841	680.553772939501	38.131830033588	435.127591227387	754.591193836241	35.694621304315	354.385476849753	838.814834978495	96.117026585398	380.938744670741	966.777637653905	40.663842831761	351.453134766430	844.424187208064	1099.233209453746	157.207819019517	1042.671192302815	927.281097863251	150.741344581020	794.811202068159	1089.855679170464	730.904139951390	856.425879586656	835.319439835626	730.896384305709	
2	27.432071428571	656.176304221150	1014.103490285344	468.974370684675	820.603819777545	1446.376893863701	294.252628252116	924.983887612403	1377.117636557296	453.498889431283	838.937189204117	1441.760267813568	628.877508852591	801.226032897912	1502.692617585714	451.040927121898	880.049625842803	952.354373886548	588.551075804820	873.308028724050	968.768812138607	314.551424153593	962.981358788703	781.208479725472	554.833608902419	925.304156676914	659.418004614899	625.244709381459	1012.098736873911	620.441059339215	542.380112308431	1032.523843248761	507.585116171460	563.636676200771	908.658017667000	746.948601690143	352.205010644949	811.951670624995	637.178729422585	292.213494249453	884.796353907022	555.067643792743	361.668075658902	878.507684093773	486.662701436751	374.534615719482	852.010742551819	416.137188946788	366.253664738812	761.706408048667	302.774538174700	316.330651986106	806.727180990559	192.584300548902	392.039242847330	958.160017188356	431.790889947951	571.545851007205	838.782489855981	386.031012082510	630.702784848047	830.593132494731	276.640749442654	581.213088348934	634.375492017352	206.087767766970	551.410728867683	803.426233547420	152.033217110809	592.531696296034	693.693142704311	144.966903518782	622.926734600960	872.297988907732	41.511961798037	615.639636311743	672.863577756420	38.072007043478	435.145643201579	746.896113543655	35.664435636889	354.360614698638	831.091110567520	96.067365394361	380.953995175752	959.090921948163	40.660509148529	351.458352066384	849.631526588610	1100.547030033787	156.718112240470	1055.665028653788	939.961863734985	150.460632090779	783.025515080019	1092.209696515654	730.468695808824	832.726769000427	835.931958032012	731.155308594007	
3	27.444142857143	654.677432791932	1014.264015707597	468.302346668911	821.434315847396	1446.587640500047	294.357962682939	924.636018585459	1376.877564625450	454.140439019540	837.675442483085	1441.628784755738	628.994628756118	801.147232997080	1502.774547938351	450.973695680840	878.383050324110	952.760551865833	588.846812004376	872.378759950884	968.568353932947	314.834855171556	962.932115008258	783.791289861819	554.751160778581	927.406442468142	661.518301153790	625.401986601011	1014.119698036979	623.648579007913	542.070845868737	1036.690198097030	512.199667635849	563.548050629863	905.429626709845	745.843612501785	352.871499638279	807.530782567563	637.140592828809	291.987394935709	878.821218636325	554.184310588647	361.807903443157	871.739182995807	486.112517409215	374.528970810069	845.238896056573	415.792713742856	366.193688104977	754.748738445221	302.658750074786	316.203227542746	799.351825079537	192.423219602519	392.032559845155	965.919338248178	434.069818161881	571.832381990024	849.340724087364	382.435029724333	631.305143203134	846.659702359781	272.832928706718	581.942101421822	654.422671353171	191.796023439625	552.360053919504	825.858987472058	147.745901086287	593.880475202027	716.856014886200	135.044629571531	624.589887976221	900.581531516759	41.650196098438	618.382968619160	665.260323250732	38.014839080573	435.155186964837	739.283728436987	35.633140663105	354.336834694187	823.451593846446	96.016807037896	380.970739987617	951.488098290782	40.655051334269	351.463253155204	854.769582196445	1101.816729514181	156.263476665914	1068.355359665785	952.508879797901	150.241132356138	771.361577856441	1094.628700359083	730.059633703370	809.442504573551	836.732428490655	731.435636303020	
4	27.456214285714	653.202602263792	1014.391222372660	467.655532189507	822.287081964156	1446.722853666249	294.501674045441	924.331938698099	1376.577059136288	454.811900235778	836.481436086294	1441.476073182016	629.141557120991	801.098945298845	1502.806466369460	450.923989707912	876.754479929394	953.083532359239	589.169946674655	871.437168334509	968.312114442476	315.148235750761	962.720607225702	786.087550979581	554.719287985060	929.079524560673	663.368545087259	625.619098331312	1015.702246472818	626.487564516421	541.896806812453	1040.312973129140	516.539465353803	563.555795836981	902.291302876353	744.736961000013	353.474302665329	803.217107417962	637.078460084554	291.776539416145	873.009642062942	553.305002575431	361.934869184280	865.164192809368	485.554337087379	374.519440602031	838.640980248122	415.433925834564	366.144130033340	747.944772012551	302.541637184547	316.082220063692	792.106496860570	192.247816831551	392.031199702593	973.246148529171	436.175600343558	572.174871598278	859.789918449169	378.637146622200	632.080279695797	862.642834932635	269.001026101910	582.747627233208	674.786719111042	177.489647423055	553.516682353527	848.329516330318	143.580240523457	595.246884725133	740.284328041710	125.207280596606	626.383308538639	928.841737142033	42.137580566523	620.993711091539	657.771073466104	37.965084322942	435.149564806692	731.778026406853	35.600835058903	354.315210993433	815.922095724171	95.964899995102	380.990214563945	943.993335291542	40.644653907259	351.468047718941	859.786908828537	1103.000942104393	155.885943543868	1080.471016304802	964.805556742460	150.159687813059	759.943953378621	1097.171990269198	729.705068681515	786.944079776959	837.892781003399	731.766107288357	
5	27.468285714286	651.768560321900	1014.469788012914	467.050356216631	823.174821303620	1446.753101726383	294.703813015538	924.090221802727	1376.191601428544	455.530532686166	835.384108217767	1441.293428071355	629.334444786848	801.097827284047	1502.765937762181	450.910377489671	875.176024568117	953.289708252265	589.539283610178	870.487024065323	967.978252968372	315.508728502424	962.257350492682	787.956068047234	554.779852274785	930.112058282279	664.855325267414	625.945377328139	1016.629491818645	628.786412760071	541.932978210646	1043.137218748210	520.488398952847	563.706549725682	899.264986287413	743.623964482767	354.006805157483	799.039763608698	636.982089744176	291.593107025050	867.404544311844	552.427936552043	362.053441451861	858.830665229153	484.980864768608	374.512629788871	832.254067911342	415.053079383852	366.114387828813	741.320500301947	302.424051790763	315.973994318891	785.001438690403	192.052479768832	392.040038276293	979.954171896300	438.052871743159	572.606937408460	870.114353151620	374.577051055770	633.101040934402	878.555635171125	265.184130650847	583.656905083376	695.704098589269	163.207923682306	554.953350002947	870.934973745836	139.647929711066	596.615943321321	764.194599683383	115.537888247612	628.327956741393	957.147734506196	43.200155289035	623.370227508637	650.394506249140	37.927394675667	435.125489759996	724.376838922908	35.568282406821	354.296375207066	808.501699371839	95.911060774041	381.013605449667	936.603813508906	40.626632795337	351.472994465834	864.649444922003	1104.068009485663	155.621030777277	1091.806053548128	976.759874705339	150.283355716024	748.882109670311	1099.884692788660	729.426957771378	765.512841674337	839.539977257410	732.171412309139	
